<?xml version="1.0" encoding="UTF-8" standalone="yes"?>
<!DOCTYPE svg PUBLIC "-//W3C//DTD SVG 1.1//EN" "http://www.w3.org/Graphics/SVG/1.1/DTD/svg11.dtd">

<svg width="20" height="20" viewBox="0 0 20 20" xmlns="http://www.w3.org/2000/svg" xmlns:xlink="http://www.w3.org/1999/xlink" version="1.1" baseProfile="full">
    <g transform="scale(1,-1) translate(0,-20)">
        <path d="M 2.000000 2.000000 L 42.000000 2.000000 L 42.000000 42.000000 L 2.000000 42.000000 Z" transform="scale(0.500000,0.500000) translate(-2.000000,-2.000000)" opacity="0.000000"></path>
        <path d="M 7.919034 38.000000 C 6.682877 38.000000 5.543223 37.294613 4.991477 36.187855 L 2.000000 30.204901 L 2.000000 29.818182 L 2.000000 24.909091 L 2.000000 5.272727 C 2.000000 3.464546 3.464545 2.000000 5.272727 2.000000 L 34.727273 2.000000 C 36.535454 2.000000 38.000000 3.464546 38.000000 5.272727 L 38.000000 24.909091 L 38.000000 29.818182 L 38.000000 30.204901 L 35.005327 36.191051 C 34.452799 37.295401 33.315567 38.000000 32.080966 38.000000 L 7.919034 38.000000 Z M 7.922230 34.727273 L 32.077770 34.727273 L 34.532315 29.818182 L 5.467685 29.818182 L 7.922230 34.727273 Z M 15.090909 26.545455 L 24.909091 26.545455 C 25.812364 26.545455 26.545455 25.812364 26.545455 24.909091 C 26.545455 24.005818 25.812364 23.272727 24.909091 23.272727 L 15.090909 23.272727 C 14.187636 23.272727 13.454545 24.005818 13.454545 24.909091 C 13.454545 25.812364 14.187636 26.545455 15.090909 26.545455 Z" transform="scale(0.500000,0.500000) translate(0.000000,0.000000)" fill="#f0f0f0" opacity="1.000000"></path>
    </g>
</svg>