<?xml version="1.0" encoding="UTF-8" standalone="yes"?>
<!DOCTYPE svg PUBLIC "-//W3C//DTD SVG 1.1//EN" "http://www.w3.org/Graphics/SVG/1.1/DTD/svg11.dtd">

<svg width="50" height="50" viewBox="0 0 50 50" xmlns="http://www.w3.org/2000/svg" xmlns:xlink="http://www.w3.org/1999/xlink" version="1.1" baseProfile="full">
    <g transform="scale(1,-1) translate(0,-50)">
        <path d="M 26.039228 51.000000 C 25.165592 51.000000 24.291959 50.828393 23.543128 50.453978 L 2.560289 40.937598 C 0.563409 39.939157 0.563409 37.177847 2.560289 36.179407 L 11.062629 32.201248 L 2.794298 28.457098 C 0.797419 27.458659 0.797419 24.697347 2.794298 23.698908 L 11.296638 19.798752 L 2.560289 15.742590 C 0.563409 14.744151 0.563409 11.982838 2.560289 10.984399 L 23.309119 1.468019 C 24.057949 1.218408 25.056388 1.000000 25.805219 1.000000 C 26.554049 1.000000 27.552488 1.218408 28.301319 1.468019 L 48.972146 10.984399 C 51.468245 11.982838 51.515045 14.993762 49.518167 15.742590 L 40.781818 19.798752 L 49.284158 23.698908 C 51.281036 24.697347 51.281036 27.458659 49.284158 28.457098 L 40.937824 32.279251 L 49.284158 36.179407 C 51.281036 37.177847 51.281036 39.939157 49.284158 40.937598 L 28.535328 50.453978 C 27.786498 50.828393 26.912864 51.000000 26.039228 51.000000 Z M 17.068869 29.471139 L 23.543128 26.429017 C 25.040789 25.680187 27.037667 25.680187 28.535328 26.429017 L 35.009587 29.471139 L 42.497887 25.960998 L 26.507247 18.472699 L 26.039228 18.472699 L 25.571209 18.472699 L 9.580570 25.960998 L 17.068869 29.471139 Z M 17.302879 17.068643 L 23.543128 14.260530 C 24.291959 14.010919 25.290398 13.714509 26.039228 13.714509 C 26.788059 13.714509 27.786498 14.010919 28.535328 14.260530 L 34.775578 17.068643 L 42.497887 13.480499 L 26.507247 5.992200 L 26.039228 5.992200 L 25.571209 5.992200 L 9.580570 13.480499 L 17.302879 17.068643 Z" transform="scale(1.000000,1.000000) translate(-1.000000,-1.000000)" fill="#f0f0f0" opacity="1.000000"></path>
    </g>
</svg>